<?xml version="1.0" encoding="UTF-8" standalone="no"?>
<!-- Created with Inkscape (http://www.inkscape.org/) -->

<svg
   version="1.1"
   id="svg1"
   width="495"
   height="280"
   viewBox="0 0 495 280"
   sodipodi:docname="Font Cover landscape.svg"
   inkscape:version="1.4 (86a8ad7, 2024-10-11)"
   inkscape:export-filename="Font Cover landscape.jpg"
   inkscape:export-xdpi="96"
   inkscape:export-ydpi="96"
   xmlns:inkscape="http://www.inkscape.org/namespaces/inkscape"
   xmlns:sodipodi="http://sodipodi.sourceforge.net/DTD/sodipodi-0.dtd"
   xmlns="http://www.w3.org/2000/svg"
   xmlns:svg="http://www.w3.org/2000/svg">
  <defs
     id="defs1" />
  <sodipodi:namedview
     id="namedview1"
     pagecolor="#ffffff"
     bordercolor="#000000"
     borderopacity="0.25"
     inkscape:showpageshadow="2"
     inkscape:pageopacity="0.0"
     inkscape:pagecheckerboard="0"
     inkscape:deskcolor="#d1d1d1"
     inkscape:zoom="1.233945"
     inkscape:cx="296.60967"
     inkscape:cy="116.29368"
     inkscape:window-width="1920"
     inkscape:window-height="1009"
     inkscape:window-x="-8"
     inkscape:window-y="-8"
     inkscape:window-maximized="1"
     inkscape:current-layer="g1" />
  <g
     inkscape:groupmode="layer"
     inkscape:label="Image"
     id="g1"
     transform="translate(-19.855019,-20.665426)">
    <rect
       style="opacity:1;fill:#ffffff;fill-opacity:0.57831299"
       id="rect3"
       width="495.00003"
       height="279.99997"
       x="19.855019"
       y="20.665426" />
    <rect
       style="opacity:1;fill:rgb(var(--primary-color-500);fill-opacity:0.66417909"
       id="rect1"
       width="495.00003"
       height="279.99997"
       x="19.855019"
       y="20.665426" />
    <text
       xml:space="preserve"
       style="font-size:213.494px;text-align:start;writing-mode:lr-tb;direction:ltr;text-anchor:start;display:none;opacity:1;fill:#275a2d;fill-opacity:0.578313;stroke-width:17.7913"
       x="28.789387"
       y="191.86859"
       id="text1"><tspan
         sodipodi:role="line"
         id="tspan1"
         x="28.789387"
         y="191.86859"
         style="font-style:normal;font-variant:normal;font-weight:100;font-stretch:normal;font-family:TallThin;-inkscape-font-specification:'TallThin Thin';fill:#275a2d;fill-opacity:0.578313;stroke-width:17.7913">AaÐðꞰʞ</tspan></text>
    <text
       xml:space="preserve"
       style="font-size:98.4185px;text-align:start;writing-mode:lr-tb;direction:ltr;text-anchor:start;display:none;opacity:1;fill:#1c4321;fill-opacity:0.807229;stroke-width:8.20162"
       x="267.40591"
       y="276.4603"
       id="text2"><tspan
         sodipodi:role="line"
         id="tspan2"
         x="267.40591"
         y="276.4603"
         style="font-style:normal;font-variant:normal;font-weight:100;font-stretch:normal;font-family:TallThin;-inkscape-font-specification:'TallThin Thin';fill:#1c4321;fill-opacity:0.807229;stroke-width:8.20162">NewEng</tspan></text>
  </g>
  <path
     style="font-weight:100;font-size:213.494px;font-family:TallThin;-inkscape-font-specification:'TallThin Thin';fill:#275a2d;fill-opacity:0.578313;stroke-width:17.7913"
     d="M 92.837588,132.09027 H 56.543607 V 47.760139 c 0,-5.33735 4.26988,-9.60723 9.60723,-9.60723 h 17.079521 c 5.33735,0 9.60723,4.26988 9.60723,9.60723 z m 0,59.77832 H 109.91711 V 39.220379 c 0,-5.33735 -4.26988,-9.60723 -9.60723,-9.60723 H 49.071317 c -5.33735,0 -9.60723,4.26988 -9.60723,9.60723 V 191.86859 h 17.07952 v -51.23856 h 36.293981 z m 58.497422,-59.99181 h -5.12385 -7.2588 -0.21349 c -5.33735,0 -9.60723,4.48337 -9.60723,9.82072 v 39.2829 1.06747 c 0,5.33735 4.26988,9.82072 9.60723,9.82072 h 0.21349 18.36049 0.21349 0.64048 0.2135 c 2.77542,0 5.33735,-1.28096 7.0453,-3.4159 v 3.4159 h 7.25879 9.82073 V 180.33992 101.56063 90.672434 c 0,-5.33735 -4.26988,-9.820724 -9.60723,-9.820724 h -0.2135 -14.73108 -19.00097 -0.21349 c -5.33735,0 -9.60723,4.483374 -9.60723,9.820724 v 0.426988 7.899278 h 16.22554 0.42699 0.42699 c 0,-5.33735 4.05638,-9.60723 9.39373,-9.60723 h 0.2135 0.21349 c 5.33735,0 9.39374,4.483374 9.39374,9.820724 v 0.213494 3.202412 18.78747 0.42699 0.21349 c 0,5.33735 -4.05639,9.82073 -9.39374,9.82073 h -0.21349 z m 7.47229,8.75325 h 0.2135 c 2.56193,0 4.69687,-0.85398 6.40482,-2.56193 v 33.94555 1.06747 0.21349 c 0,5.33735 -4.05639,9.82073 -9.39374,9.82073 h -0.21349 -0.2135 c -5.33735,0 -9.39373,-4.48338 -9.39373,-9.82073 v -0.21349 -1.92145 -20.49542 -0.2135 c 0,-5.33735 4.05638,-9.82072 9.39373,-9.82072 h 0.2135 2.77542 z m 58.07035,-64.0482 V 38.152909 h 17.07952 c 10.6747,0 19.21446,8.53976 19.21446,19.21446 V 164.11437 c 0,10.6747 -8.53976,19.21446 -19.21446,19.21446 H 216.87765 V 93.66135 h 23.48434 v -8.53976 h -40.56386 v 106.747 h 51.23856 c 10.67471,0 19.21447,-8.53976 19.21447,-19.21446 V 48.827609 c 0,-10.6747 -8.53976,-19.21446 -19.21447,-19.21446 H 199.79813 V 76.58183 Z m 102.26348,-4.269881 v -14.94458 c 4.91036,0.426988 8.75325,4.483374 8.75325,9.60723 v 0.426988 1.06747 c 0,7.899279 -2.13494,9.393737 -3.4159,15.798557 -1.70796,-2.13494 -4.26988,-3.415904 -7.2588,-3.415904 h -0.21349 -0.2135 -2.77542 -4.48337 -1.92145 -1.06747 c -10.6747,0 -19.21446,8.53976 -19.21446,19.21446 v 72.58796 c 0,10.6747 8.53976,19.21446 19.21446,19.21446 h 14.94458 c 10.6747,0 19.21446,-8.53976 19.21446,-19.21446 V 82.98665 58.861827 58.434839 c 0,-5.33735 -4.26988,-9.60723 -9.60723,-9.60723 h -11.95566 v -14.94458 h -12.80964 v 14.94458 H 291.6004 v 8.53976 h 14.73109 v 14.94458 z M 304.41004,171.15967 V 99.639182 99.425688 c 0,-5.33735 4.05639,-9.820724 9.39374,-9.820724 h 0.21349 0.21349 c 5.33735,0 9.39374,4.483374 9.39374,9.820724 v 0.213494 72.374468 1.06747 0.21349 c 0,5.33735 -4.05639,9.82073 -9.39374,9.82073 h -0.21349 -0.21349 c -5.33735,0 -9.39374,-4.48338 -9.39374,-9.82073 v -0.21349 z m 95.6453,-39.0694 c -0.42699,0 -0.85398,0 -1.28097,0 L 380.20039,46.906163 c -2.13494,-10.247712 -6.8318,-14.517592 -13.66361,-17.293014 h -8.75326 v 15.158074 c 5.55085,1.494458 10.8882,7.47229 12.16916,13.663616 0.2135,0.213494 6.61832,37.361451 16.01205,76.644351 -1.70795,0.64048 -3.4159,1.49445 -4.69687,2.13494 -14.0906,7.68578 -23.48434,24.12482 -23.48434,39.70988 v 14.94458 h 17.07952 v -15.15807 c 0,-21.13591 12.38266,-35.44001 36.29398,-35.44001 v 50.59808 h 17.07952 V 29.613149 H 411.15702 V 132.09027 h -9.60723 z m 68.53153,5.33735 -4.48337,4.05639 -12.16916,12.80964 c -4.05639,4.26988 -6.61832,8.53976 -6.61832,15.58506 v 21.98988 h 17.07952 v -20.70892 -1.49446 c 0,-9.82072 0,-14.73108 4.26988,-19.00096 L 481.61,135.71967 v 3.4159 80.48724 h 17.07953 V 80.85171 H 481.61 v 44.19326 l -7.47229,7.0453 C 463.03603,126.11244 462.39554,106.044 462.39554,92.59388 V 53.097489 h -17.07952 v 39.282897 c 0,24.124824 7.04531,39.923374 23.27085,45.047234 z"
     id="text3"
     transform="translate(-19.855019,-20.665426)"
     aria-label="AaÐðꞰʞ" />
  <path
     style="font-weight:100;font-size:98.4185px;font-family:TallThin;-inkscape-font-specification:'TallThin Thin';fill:#1c4321;fill-opacity:0.807229;stroke-width:8.20162"
     d="m 280.20032,276.4603 v -66.53091 h 2.95255 c 2.75572,0 5.3146,1.0826 7.18456,2.95255 l 6.59404,6.39721 v 57.18115 h 7.87348 v -74.79807 h -7.87348 v 12.10548 c -3.1494,-3.05097 -6.39721,-6.10195 -9.5466,-9.15292 -1.86995,-1.86995 -4.42883,-2.95256 -7.18455,-2.95256 h -1.37786 -6.49562 v 74.79807 z m 37.89115,-51.17762 c -2.46046,0 -4.42883,1.96837 -4.42883,4.42883 v 42.31995 c 0,2.46047 1.96837,4.42884 4.42883,4.42884 h 20.17579 v -3.93674 h -12.30231 c -2.46046,0 -4.42883,-1.96837 -4.42883,-4.42884 v -15.25486 h 12.30231 c 2.46046,0 4.42883,-1.96837 4.42883,-4.42884 v -18.69951 c 0,-2.46046 -1.96837,-4.42883 -4.42883,-4.42883 z m 7.77506,3.93674 h 0.19684 c 2.46046,0 4.33041,2.06678 4.33041,4.52725 v 10.72761 c 0,2.46047 -1.96837,4.42884 -4.42883,4.42884 h -4.42883 v -15.25487 c 0,-2.46046 1.86995,-4.42883 4.33041,-4.42883 z m 44.68199,42.41837 c 0.0984,-0.68893 0.19684,-1.47628 0.19684,-2.06679 v -42.31995 c 0,-0.78735 -0.39367,-1.67312 -1.0826,-2.26363 l -2.85414,-2.75572 -2.85414,2.75572 c -0.68893,0.59051 -1.0826,1.47628 -1.0826,2.26363 V 269.571 c 0,0.59051 0.0984,1.37786 0.19684,2.06679 -0.68893,-0.39367 -1.27944,-0.88577 -1.96837,-1.5747 l -4.62567,-4.62567 c -2.26363,-2.1652 -2.46046,-4.23199 -2.46046,-7.08613 v -33.06861 h -7.87349 v 30.50973 c 0,2.95256 0.4921,4.72409 3.34623,7.77506 l 8.464,8.95609 c 2.46046,2.55888 5.70827,3.93674 8.85766,3.93674 3.14939,0 6.3972,-1.37786 8.85767,-3.93674 l 8.46399,-8.95609 c 2.85413,-3.05097 3.34623,-4.8225 3.34623,-7.77506 v -30.50973 h -7.87348 v 33.06861 c 0,2.85414 -0.19684,4.92093 -2.46047,7.08613 l -4.62567,4.62567 c -0.68893,0.68893 -1.27944,1.18103 -1.96837,1.5747 z m 58.26376,0.88577 h -20.17579 c -2.46046,0 -4.42883,-1.96837 -4.42883,-4.42884 v -15.25486 h 20.17579 v -3.93674 h -20.17579 v -43.30415 h 24.60462 v -3.93674 h -32.4781 v 70.36923 c 0,2.46047 1.96837,4.42884 4.42883,4.42884 h 28.04927 z m 16.73117,3.93674 v -42.91047 c 2.75572,0 5.3146,1.0826 7.18455,2.95255 l 5.60986,5.41302 v 34.5449 h 7.87348 v -49.20925 c 0,-0.78735 -0.39368,-1.5747 -1.08261,-2.16521 l -2.85413,-2.75572 -2.85414,2.75572 c -0.68893,0.59051 -1.0826,1.37786 -1.0826,2.16521 v 9.15292 l -8.56241,-8.16874 c -1.86996,-1.86995 -4.42884,-2.95255 -7.18455,-2.95255 h -0.68893 -0.68893 -3.54307 v 51.17762 z m 36.41493,-41.63103 v 32.9702 0.0984 c 0,2.46046 1.86995,4.52725 4.33042,4.52725 h 0.0984 0.0984 c 2.46047,0 4.33042,-2.06679 4.33042,-4.52725 v -0.0984 -33.36387 -0.4921 -0.0984 c 0,-2.46046 -1.86995,-4.52725 -4.33042,-4.52725 h -0.0984 -0.0984 c -2.46047,0 -4.33042,2.06679 -4.33042,4.52725 v 0.0984 z m 8.85767,40.45 c -0.78735,0.78735 -1.77153,1.18103 -2.95256,1.18103 h -0.0984 -0.0984 -1.27944 -2.06679 -0.88577 -0.49209 c -4.92093,0 -8.85767,-3.93674 -8.85767,-8.85767 v -33.46229 c 0,-4.92092 3.93674,-8.85766 8.85767,-8.85766 h 4.23199 0.29526 0.0984 c 1.27944,0 2.46046,0.49209 3.24781,1.18102 v -1.18102 h 7.87348 v 9.84185 40.35158 11.12129 0.19684 c 0,2.46046 -1.96837,4.42883 -4.42883,4.42883 h -19.19161 v -3.93674 h 11.31813 c 2.46046,0 4.42883,-1.96837 4.42883,-4.42883 v -0.19684 -1.37786 z"
     id="text4"
     transform="translate(-19.855019,-20.665426)"
     aria-label="NewEng" />
</svg>
