<?xml version="1.0" encoding="UTF-8" standalone="no"?>
<!-- Created with Inkscape (http://www.inkscape.org/) -->

<svg
   version="1.1"
   id="svg1"
   width="495"
   height="280"
   viewBox="0 0 495 280"
   sodipodi:docname="Font Cover landscape.svg"
   inkscape:version="1.4 (86a8ad7, 2024-10-11)"
   inkscape:export-filename="Font Cover landscape.png"
   inkscape:export-xdpi="96"
   inkscape:export-ydpi="96"
   xmlns:inkscape="http://www.inkscape.org/namespaces/inkscape"
   xmlns:sodipodi="http://sodipodi.sourceforge.net/DTD/sodipodi-0.dtd"
   xmlns="http://www.w3.org/2000/svg"
   xmlns:svg="http://www.w3.org/2000/svg">
  <defs
     id="defs1" />
  <sodipodi:namedview
     id="namedview1"
     pagecolor="#ffffff"
     bordercolor="#000000"
     borderopacity="0.25"
     inkscape:showpageshadow="2"
     inkscape:pageopacity="0.0"
     inkscape:pagecheckerboard="0"
     inkscape:deskcolor="#d1d1d1"
     inkscape:zoom="0.87253084"
     inkscape:cx="138.104"
     inkscape:cy="92.260349"
     inkscape:window-width="1920"
     inkscape:window-height="1009"
     inkscape:window-x="-8"
     inkscape:window-y="-8"
     inkscape:window-maximized="1"
     inkscape:current-layer="g1" />
  <g
     inkscape:groupmode="layer"
     inkscape:label="Image"
     id="g1"
     transform="translate(-19.855019,-20.665426)">
    <rect
       style="display:none;opacity:1;fill:#ffffff;fill-opacity:0.578313"
       id="rect3"
       width="495.00003"
       height="279.99997"
       x="19.855019"
       y="20.665426" />
    <rect
       style="opacity:1;fill:#88009b;fill-opacity:1"
       id="rect1"
       width="495.00003"
       height="279.99997"
       x="19.855019"
       y="20.665426" />
    <text
       xml:space="preserve"
       style="font-size:213.494px;text-align:start;writing-mode:lr-tb;direction:ltr;text-anchor:start;display:none;opacity:1;fill:#275a2d;fill-opacity:0.578313;stroke-width:17.7913"
       x="28.789387"
       y="191.86859"
       id="text1"><tspan
         sodipodi:role="line"
         id="tspan1"
         x="28.789387"
         y="191.86859"
         style="font-style:normal;font-variant:normal;font-weight:100;font-stretch:normal;font-family:TallThin;-inkscape-font-specification:'TallThin Thin';fill:#275a2d;fill-opacity:0.578313;stroke-width:17.7913">AaÐðꞰʞ</tspan></text>
    <text
       xml:space="preserve"
       style="font-size:98.4185px;text-align:end;writing-mode:lr-tb;direction:ltr;text-anchor:end;display:inline;opacity:1;fill:#32003a;fill-opacity:0.807843;stroke-width:8.20162"
       x="502.13419"
       y="285.37479"
       id="text2"><tspan
         sodipodi:role="line"
         id="tspan2"
         x="502.13419"
         y="285.37479"
         style="font-style:normal;font-variant:normal;font-weight:100;font-stretch:normal;font-family:TallThin;-inkscape-font-specification:'TallThin Thin';text-align:end;text-anchor:end;fill:#32003a;fill-opacity:0.807843;stroke-width:8.20162">TallThin</tspan></text>
  </g>
  <path
     style="font-weight:100;font-size:213.494px;font-family:TallThin;-inkscape-font-specification:'TallThin Thin';fill:#3a0043;fill-opacity:0.57647061;stroke-width:17.7913"
     d="M 92.837588,132.09027 H 56.543607 V 47.760139 c 0,-5.33735 4.26988,-9.60723 9.60723,-9.60723 h 17.079521 c 5.33735,0 9.60723,4.26988 9.60723,9.60723 z m 0,59.77832 H 109.91711 V 39.220379 c 0,-5.33735 -4.26988,-9.60723 -9.60723,-9.60723 H 49.071317 c -5.33735,0 -9.60723,4.26988 -9.60723,9.60723 V 191.86859 h 17.07952 v -51.23856 h 36.293981 z m 58.497422,-59.99181 h -5.12385 -7.2588 -0.21349 c -5.33735,0 -9.60723,4.48337 -9.60723,9.82072 v 39.2829 1.06747 c 0,5.33735 4.26988,9.82072 9.60723,9.82072 h 0.21349 18.36049 0.21349 0.64048 0.2135 c 2.77542,0 5.33735,-1.28096 7.0453,-3.4159 v 3.4159 h 7.25879 9.82073 V 180.33992 101.56063 90.672434 c 0,-5.33735 -4.26988,-9.820724 -9.60723,-9.820724 h -0.2135 -14.73108 -19.00097 -0.21349 c -5.33735,0 -9.60723,4.483374 -9.60723,9.820724 v 0.426988 7.899278 h 16.22554 0.42699 0.42699 c 0,-5.33735 4.05638,-9.60723 9.39373,-9.60723 h 0.2135 0.21349 c 5.33735,0 9.39374,4.483374 9.39374,9.820724 v 0.213494 3.202412 18.78747 0.42699 0.21349 c 0,5.33735 -4.05639,9.82073 -9.39374,9.82073 h -0.21349 z m 7.47229,8.75325 h 0.2135 c 2.56193,0 4.69687,-0.85398 6.40482,-2.56193 v 33.94555 1.06747 0.21349 c 0,5.33735 -4.05639,9.82073 -9.39374,9.82073 h -0.21349 -0.2135 c -5.33735,0 -9.39373,-4.48338 -9.39373,-9.82073 v -0.21349 -1.92145 -20.49542 -0.2135 c 0,-5.33735 4.05638,-9.82072 9.39373,-9.82072 h 0.2135 2.77542 z m 58.07035,-64.0482 V 38.152909 h 17.07952 c 10.6747,0 19.21446,8.53976 19.21446,19.21446 V 164.11437 c 0,10.6747 -8.53976,19.21446 -19.21446,19.21446 H 216.87765 V 93.66135 h 23.48434 v -8.53976 h -40.56386 v 106.747 h 51.23856 c 10.67471,0 19.21447,-8.53976 19.21447,-19.21446 V 48.827609 c 0,-10.6747 -8.53976,-19.21446 -19.21447,-19.21446 H 199.79813 V 76.58183 Z m 102.26348,-4.269881 v -14.94458 c 4.91036,0.426988 8.75325,4.483374 8.75325,9.60723 v 0.426988 1.06747 c 0,7.899279 -2.13494,9.393737 -3.4159,15.798557 -1.70796,-2.13494 -4.26988,-3.415904 -7.2588,-3.415904 h -0.21349 -0.2135 -2.77542 -4.48337 -1.92145 -1.06747 c -10.6747,0 -19.21446,8.53976 -19.21446,19.21446 v 72.58796 c 0,10.6747 8.53976,19.21446 19.21446,19.21446 h 14.94458 c 10.6747,0 19.21446,-8.53976 19.21446,-19.21446 V 82.98665 58.861827 58.434839 c 0,-5.33735 -4.26988,-9.60723 -9.60723,-9.60723 h -11.95566 v -14.94458 h -12.80964 v 14.94458 H 291.6004 v 8.53976 h 14.73109 v 14.94458 z M 304.41004,171.15967 V 99.639182 99.425688 c 0,-5.33735 4.05639,-9.820724 9.39374,-9.820724 h 0.21349 0.21349 c 5.33735,0 9.39374,4.483374 9.39374,9.820724 v 0.213494 72.374468 1.06747 0.21349 c 0,5.33735 -4.05639,9.82073 -9.39374,9.82073 h -0.21349 -0.21349 c -5.33735,0 -9.39374,-4.48338 -9.39374,-9.82073 v -0.21349 z m 95.6453,-39.0694 c -0.42699,0 -0.85398,0 -1.28097,0 L 380.20039,46.906163 c -2.13494,-10.247712 -6.8318,-14.517592 -13.66361,-17.293014 h -8.75326 v 15.158074 c 5.55085,1.494458 10.8882,7.47229 12.16916,13.663616 0.2135,0.213494 6.61832,37.361451 16.01205,76.644351 -1.70795,0.64048 -3.4159,1.49445 -4.69687,2.13494 -14.0906,7.68578 -23.48434,24.12482 -23.48434,39.70988 v 14.94458 h 17.07952 v -15.15807 c 0,-21.13591 12.38266,-35.44001 36.29398,-35.44001 v 50.59808 h 17.07952 V 29.613149 H 411.15702 V 132.09027 h -9.60723 z m 68.53153,5.33735 -4.48337,4.05639 -12.16916,12.80964 c -4.05639,4.26988 -6.61832,8.53976 -6.61832,15.58506 v 21.98988 h 17.07952 v -20.70892 -1.49446 c 0,-9.82072 0,-14.73108 4.26988,-19.00096 L 481.61,135.71967 v 3.4159 80.48724 h 17.07953 V 80.85171 H 481.61 v 44.19326 l -7.47229,7.0453 C 463.03603,126.11244 462.39554,106.044 462.39554,92.59388 V 53.097489 h -17.07952 v 39.282897 c 0,24.124824 7.04531,39.923374 23.27085,45.047234 z"
     id="text3"
     transform="translate(-19.855019,-20.665426)"
     aria-label="AaÐðꞰʞ" />
  <path
     style="font-weight:100;font-size:98.4185px;font-family:TallThin;-inkscape-font-specification:'TallThin Thin';text-align:end;text-anchor:end;fill:#32003a;fill-opacity:0.807843;stroke-width:8.20162"
     d="m 243.61407,189.9113 v 3.93674 h 11.81022 v 66.43249 c 0,2.46047 1.77153,4.42884 3.93674,4.42884 h 8.07032 v -3.93674 h -0.19684 c -2.16521,0 -3.93674,-1.96837 -3.93674,-4.42884 v -62.49575 h 12.79441 v -3.93674 z m 51.57132,47.14247 h -2.36204 -3.34623 -0.0984 c -2.46046,0 -4.42883,2.06679 -4.42883,4.52725 v 18.109 0.4921 c 0,2.46046 1.96837,4.52725 4.42883,4.52725 h 0.0984 8.46399 0.0984 0.29526 0.0984 c 1.27944,0 2.46046,-0.59051 3.24781,-1.5747 v 1.5747 h 3.34623 4.52725 v -5.3146 -36.31643 -5.01934 c 0,-2.46047 -1.96837,-4.52725 -4.42884,-4.52725 h -0.0984 -6.79088 -8.75925 -0.0984 c -2.46046,0 -4.42883,2.06678 -4.42883,4.52725 v 0.19683 3.64149 h 7.47981 0.19683 0.19684 c 0,-2.46046 1.86995,-4.42883 4.33041,-4.42883 h 0.0984 0.0984 c 2.46046,0 4.33042,2.06678 4.33042,4.52725 v 0.0984 1.47628 8.66083 0.19684 0.0984 c 0,2.46046 -1.86996,4.52725 -4.33042,4.52725 h -0.0984 z m 3.44465,4.03516 h 0.0984 c 1.18102,0 2.16521,-0.39368 2.95256,-1.18103 v 15.64855 0.49209 0.0984 c 0,2.46046 -1.86996,4.52725 -4.33042,4.52725 h -0.0984 -0.0984 c -2.46046,0 -4.33041,-2.06679 -4.33041,-4.52725 v -0.0984 -0.88577 -9.44817 -0.0984 c 0,-2.46047 1.86995,-4.52725 4.33041,-4.52725 h 0.0984 1.27944 z m 26.67141,23.62044 h 5.3146 0.0984 c 0.68893,0 0.78735,-0.19684 1.08261,-0.4921 l 1.37786,-1.47627 -1.37786,-1.47628 c -0.29526,-0.29526 -0.39368,-0.49209 -1.08261,-0.49209 -6.3972,0 -6.3972,-3.93674 -6.3972,-8.85767 v -60.03529 h -7.87348 v 63.97203 c 0,4.92093 3.93674,8.85767 8.85767,8.85767 z m 18.69957,0 h 5.3146 0.0984 c 0.68893,0 0.78735,-0.19684 1.08261,-0.4921 l 1.37786,-1.47627 -1.37786,-1.47628 c -0.29526,-0.29526 -0.39368,-0.49209 -1.08261,-0.49209 -6.3972,0 -6.3972,-3.93674 -6.3972,-8.85767 v -60.03529 h -7.87348 v 63.97203 c 0,4.92093 3.93674,8.85767 8.85767,8.85767 z m 11.81027,-74.79807 v 3.93674 h 11.81022 v 66.43249 c 0,2.46047 1.77153,4.42884 3.93674,4.42884 h 8.07032 v -3.93674 h -0.19684 c -2.16521,0 -3.93674,-1.96837 -3.93674,-4.42884 v -62.49575 h 12.79441 v -3.93674 z m 41.33581,1.96837 v 72.8297 h 7.87348 v -35.92276 c 0,-8.56241 1.27944,-11.31812 4.42883,-11.31812 3.05097,0 4.42883,2.75571 4.42883,11.31812 v 35.92276 h 7.87348 v -38.87531 c 0,-7.77506 -4.52725,-12.30231 -11.31812,-12.30231 h -1.96837 c -1.37786,0 -2.75572,0.29525 -3.44465,0.68892 v -22.341 z m 32.47809,68.40086 v -46.74878 h 7.87348 v 42.81204 c 0,2.46047 1.77153,4.42884 3.93674,4.42884 h 4.42883 v 3.93674 h -12.30231 c -2.16521,0 -3.93674,-1.96837 -3.93674,-4.42884 z M 428.641,202.41045 c 0,0.98419 0.49209,2.16521 1.37786,2.85414 l 3.54307,3.44465 3.54306,-3.44465 c 0.88577,-0.68893 1.37786,-1.86995 1.37786,-2.85414 0,-0.98418 -0.49209,-2.06678 -1.37786,-2.75571 l -3.54306,-3.44465 -3.54307,3.44465 c -0.88577,0.68893 -1.37786,1.77153 -1.37786,2.75571 z m 29.03345,62.29892 V 221.7989 c 2.75572,0 5.3146,1.0826 7.18455,2.95255 l 5.60985,5.41302 v 34.5449 h 7.87348 v -49.20925 c 0,-0.78735 -0.39367,-1.5747 -1.0826,-2.16521 l -2.85414,-2.75572 -2.85413,2.75572 c -0.68893,0.59051 -1.08261,1.37786 -1.08261,2.16521 v 9.15292 l -8.56241,-8.16874 c -1.86995,-1.86995 -4.42883,-2.95255 -7.18455,-2.95255 h -0.68893 -0.68893 -3.54306 v 51.17762 z"
     id="text5"
     aria-label="TallThin" />
</svg>
